PathFileType	4	(X/Y/Z)	5_coords_data.trc
DataRate	CameraRate	NumFrames	NumMarkers	Units	OrigDataRate	OrigDataStartFrame	OrigNumFrames
30.0	30.0	9	21	m	30.0	1	67
Frame#	Time	THUMB_TIP	THUMB_IP	THUMB_MCP	THUMB_CMC	INDEX_TIP	INDEX_DIP	INDEX_PIP	INDEX_MCP	MIDDLE_TIP	MIDDLE_DIP	MIDDLE_PIP	MIDDLE_MCP	RING_TIP	RING_DIP	RING_PIP	RING_MCP	PINKY_TIP	PINKY_DIP	PINKY_PIP	PINKY_MCP	WRIST
X1	Y1	Z1	X2	Y2	Z2	X3	Y3	Z3	X4	Y4	Z4	X5	Y5	Z5	X6	Y6	Z6	X7	Y7	Z7	X8	Y8	Z8	X9	Y9	Z9	X10	Y10	Z10	X11	Y11	Z11	X12	Y12	Z12	X13	Y13	Z13	X14	Y14	Z14	X15	Y15	Z15	X16	Y16	Z16	X17	Y17	Z17	X18	Y18	Z18	X19	Y19	Z19	X20	Y20	Z20	X21	Y21	Z21
0	-2.749317978547796e-18	0.47969709978707664	-0.03302789376096449	-0.17256230234470785	0.4806955866317477	-0.03329411259142512	-0.14960729958811197	0.46471088227273405	-0.028330544162888494	-0.12336473464087089	0.46914146046103833	-0.02966289600576255	-0.07899712465921749	0.5742948060732689	0.028673521359929288	-0.16562377586144006	0.5593444603302768	0.024020216129021166	-0.1565224620775404	0.5386340469677975	0.018087273426028228	-0.14356527093755003	0.5072600756077413	0.004516678816157027	-0.11816548792601794	0.5980380671246365	0.03776497491541475	-0.1376194427123853	0.5826420034151439	0.029946235035677504	-0.13215789266260558	0.5573516520098699	0.019834217479083205	-0.12178703075373362	0.5196535468556782	0.006716972694502332	-0.10171369824403553	0.6025423326005969	0.03734116095991391	-0.10859332450984716	0.5867438883471473	0.030381779270447606	-0.10339946605288375	0.5645428520052096	0.021658551196433118	-0.09624410049180362	0.5282313849132283	0.007173150303912301	-0.08593045164132782	0.6001541072147215	0.02646172109153655	-0.06645215650440747	0.5842327147199345	0.02019206349850322	-0.06600421153785738	0.5647092573551453	0.012479791841058296	-0.06641347600861741	0.5312453359403078	-0.0009734402416140542	-0.0666583455072049	0.4622830810018609	-0.023011742144276925	-0.05198982011943096
1	0.03333333333333339	0.4799001851919724	-0.03289142658810029	-0.17241830973380082	0.48085014114684765	-0.033225038552449404	-0.1494621278487172	0.4647150258082495	-0.028221811742580538	-0.1233193320055189	0.4694233719341805	-0.029443666236596	-0.07897715627683044	0.5744091209883608	0.028882647907746972	-0.16550602649821008	0.5595000756342409	0.024157971821295976	-0.1563737867670755	0.5388924245896535	0.0182239906959214	-0.14325424335168874	0.507438746852449	0.004389502578107107	-0.11809655686580234	0.5983392270415174	0.03783606587272226	-0.137025269685985	0.5829026030869998	0.030018589031373	-0.13167758825177633	0.5574931568085401	0.02021294165334131	-0.12130363677127598	0.5196598383469111	0.007284229242061402	-0.10136281606180209	0.6029687088331653	0.037243285469070964	-0.10783100009254384	0.5872368732258757	0.030140731034728363	-0.10262878239886575	0.564913688292169	0.02174519055458135	-0.09546147513171543	0.5288170218269116	0.006696989431011047	-0.08519974296601626	0.6000032949711586	0.026817575435120866	-0.06630980984345353	0.5841605750904857	0.02034701621272228	-0.06593552368025543	0.5646235436043189	0.012664099201129542	-0.0662341972504055	0.5313431706761094	-0.0012346435216117335	-0.0665880043819849	0.4622830810018608	-0.023011742144276925	-0.05198982011943096
2	0.06666666666666676	0.4801125864713487	-0.03281476013482065	-0.17228827589739806	0.4810014812808038	-0.03318804942116038	-0.1493302594080228	0.4647246761159284	-0.028151810721662396	-0.12328180622196261	0.46963518517364944	-0.02927886842438554	-0.07895905087294608	0.5744784337629231	0.029041679294214973	-0.1654235259498522	0.5596018435081958	0.024262989242848976	-0.15626649674896353	0.5390712552518221	0.018334427226687766	-0.14302425633173096	0.5075561125129703	0.004311014991020268	-0.11804875270481024	0.5985619469175707	0.0378408045113281	-0.13659407864557127	0.5830912624220458	0.03003408891954329	-0.1313297541011581	0.5575876802607751	0.020480683079227235	-0.12095144577111072	0.5196455057954588	0.007717778315308066	-0.10111089185166003	0.6031956601211127	0.037281983666288765	-0.10730320199040191	0.5875084977194583	0.030087252337757997	-0.10209275317150149	0.5650976600543329	0.02193770027051123	-0.09491507003203131	0.5292013468991708	0.006387286796177172	-0.0846993871550138	0.5998770724755597	0.027097076959374022	-0.06621802975918198	0.5840951140483449	0.02047686357792644	-0.06589777519517018	0.5645456965464553	0.012822587580332945	-0.06610837740188094	0.5314087467044073	-0.0014125145822468932	-0.06654182011611368	0.4622830810018609	-0.023011742144276925	-0.05198982011943101
3	0.10000000000000014	0.4803380775102365	-0.03278965647098431	-0.17217288510537143	0.48115359524353607	-0.03317845251446927	-0.14921240234774535	0.4647416775294587	-0.02811528937232244	-0.12325410240452173	0.46978596220188507	-0.029162099926352658	-0.07894440391979382	0.5745109206510453	0.029157644721349518	-0.1653726398107177	0.5596581350302786	0.024341141212481543	-0.1561967990725287	0.5391819781901245	0.0184229955766394	-0.1428659181455092	0.5076203759501198	0.0042757717691386254	-0.11801923996543412	0.5987164057847432	0.03780235096733553	-0.13630539151987514	0.5832170098322021	0.030014783219420305	-0.13109746355589733	0.557641149823215	0.020663310160896176	-0.1207131057791068	0.5196157219956177	0.008043250653734457	-0.1009406790801935	0.6033066528599561	0.03736658808599613	-0.10695523704669674	0.5876455119898875	0.030121341163942272	-0.1017365146277193	0.5651716560989616	0.022155791784896017	-0.09454931743521966	0.5294420899383167	0.006203197331781429	-0.08436925524550007	0.5997778164183419	0.027309795187415498	-0.06616773847421376	0.5840392414555329	0.02058544672578222	-0.06588419675494522	0.5644782456954628	0.012959250884279183	-0.06602772675724708	0.531446913585433	-0.0015174975984507677	-0.0665158900544083	0.4622830810018609	-0.023011742144276925	-0.05198982011943101
4	0.13333333333333353	0.48057957999807543	-0.03280820064791423	-0.17207112867404323	0.4813095785272993	-0.03319172265485215	-0.14910767917233453	0.4647668674761035	-0.028107110882309216	-0.12323674114915562	0.469884311429006	-0.02908690418716464	-0.07893389956457253	0.5745136923012382	0.029237616494804497	-0.16534868723114304	0.5596765799531878	0.024397880144065964	-0.15615972378434068	0.5392353067394409	0.01849381222513702	-0.14276919861130777	0.5076395838883347	0.004278277660039631	-0.118005011393783	0.5988124821948215	0.03773600135462962	-0.13613927497134748	0.5832887387477567	0.029974941582843417	-0.13096439906863522	0.5576593901868534	0.020780075071040516	-0.1205720715057717	0.5195743046505231	0.008281241394504146	-0.10083749936912031	0.6033582615846472	0.0374336422254814	-0.10674956034298422	0.587707396198242	0.03017221246892643	-0.10152251045349184	0.5651885641491767	0.02234292467670107	-0.09432637018161644	0.5295761354671997	0.006116836187132879	-0.08416813166798542	0.5997057518252082	0.02746386708006332	-0.06615040365482705	0.583994438318141	0.02067519090873937	-0.06588867149489705	0.564422349586051	0.013076754266303281	-0.06598418198690098	0.5314621129202178	-0.0015599684397300528	-0.06650629151463747	0.4622830810018608	-0.023011742144276925	-0.051989820119430985
5	0.1666666666666669	0.48083936407209826	-0.03286274924176391	-0.17198074667786117	0.4814718498129442	-0.033223497354553766	-0.14901403549435155	0.4648003207845989	-0.0281222622925702	-0.12322920428103107	0.4699384755920566	-0.029046817598911034	-0.07892757267834494	0.5744930731812383	0.02928872781168912	-0.16534628288164743	0.5596642879181711	0.02443835737327782	-0.15614948810128892	0.5392414369208542	0.018550772599888132	-0.14272364229264284	0.5076216734420131	0.004313008703829113	-0.1180029479095509	0.5988600869582226	0.037651296140833845	-0.13607584055166852	0.5833154932523265	0.029923138486175227	-0.13091433052229182	0.5576484419640243	0.02084544129882393	-0.12051204990992484	0.5195242594901203	0.00844896464028333	-0.10078840931923438	0.6033858143822275	0.03744765213145984	-0.106657059742779	0.5877321051134962	0.03019833511852643	-0.10142171935498862	0.5651816672467916	0.0224683903904509	-0.09421715930452104	0.5296287521406615	0.006107972292866193	-0.08406591400512337	0.5996595893039037	0.027566303278818816	-0.06615792743024879	0.5839611998462023	0.020747440390737726	-0.06590558372044558	0.5643782316591405	0.013176757120697657	-0.06596985509244543	0.5314585090718199	-0.0015502432853879977	-0.06650909048911008	0.4622830810018609	-0.023011742144276925	-0.05198982011943101
6	0.20000000000000023	0.4811192390509498	-0.03294586349717299	-0.17189860585809005	0.48164235605858885	-0.03326955001787335	-0.1489285911512459	0.4648415786707738	-0.02815584041197905	-0.12323026721306529	0.46995642897557977	-0.029035388391322026	-0.07892502258320841	0.5744548550253983	0.029318177982881832	-0.16535960533012595	0.5596280341311983	0.024467533074393644	-0.15615978869374283	0.5392102292508982	0.01859762621024863	-0.14271853613766516	0.5075745138789427	0.004374429244694555	-0.11800986812452302	0.5988692831244586	0.037553732906277504	-0.13609505567155	0.583306546905799	0.029863944235539286	-0.13093091086453654	0.557614650569919	0.020870534000658303	-0.12051675775381573	0.519468142532681	0.008561426870962285	-0.10078156768038068	0.6034071674696407	0.03739882801687522	-0.10665221485162696	0.5877399324224472	0.030184666239886693	-0.10140877935269793	0.5651677292068282	0.0225258358537489	-0.09419643312493126	0.5296187022692885	0.006160824146124844	-0.084038977262196	0.5996370337344382	0.027623293814981853	-0.06618252418885737	0.5839393762305619	0.02080276497980782	-0.06592966988385829	0.5643455097679168	0.013260207207768437	-0.06597698055363055	0.5314400988113561	-0.001498591296137608	-0.06652034737353782	0.4622830810018608	-0.023011742144276925	-0.05198982011943096
7	0.23333333333333361	0.48142072240664024	-0.03305024019281899	-0.17182101292264138	0.4818227550076518	-0.03332575436885021	-0.1488479316811855	0.46488985025412666	-0.028203027647756618	-0.12323827710426788	0.46994597060506127	-0.029046180321482318	-0.07892558433384764	0.574404516546804	0.029333228704886305	-0.16538260421613243	0.5595744107959248	0.024490270186630858	-0.15618403279399307	0.5391513606110415	0.018638043976564878	-0.14274303943293676	0.507505942143421	0.004457004629553674	-0.11802256801656419	0.5988502980208075	0.03744615946281371	-0.13617673119742663	0.5832713801044856	0.029799299805726598	-0.13099765271363117	0.5575646395994324	0.020864302318543304	-0.12056985992177499	0.5194083096668632	0.008632275357598473	-0.10080575297246783	0.6034278407404785	0.037296286840952764	-0.1067108694897459	0.5877387208395861	0.0301354818676286	-0.10145973733853897	0.5651517303710561	0.022526940089416025	-0.09424046226525529	0.5295613109928629	0.006261990867409972	-0.08406724697755535	0.5996351881517654	0.027640488313298905	-0.06621660425679307	0.5839284357063729	0.02084122711999714	-0.0659558843986757	0.5643234462145439	0.013327596606701131	-0.06599786695386833	0.5314108004524888	-0.0014152485332620257	-0.06653612072352572	0.4622830810018609	-0.023011742144276925	-0.05198982011943096
7	0.2666666666666655	0.4817451799640271	-0.033168648681853874	-0.17174396339017062	0.4820145681664767	-0.03338804865695111	-0.14876833948901597	0.46494417952575673	-0.0282590661424017	-0.12325137709103012	0.4699148052037031	-0.029072769537222265	-0.07892846239496126	0.5743474032021785	0.029341194995173292	-0.16540915489127983	0.5595099454047514	0.024511408293537262	-0.1562155154309644	0.5390744445010944	0.01867567283459637	-0.14278628136978655	0.507423791606164	0.004555210159543077	-0.11803785113336429	0.5988134935518509	0.0373298694298001	-0.1363005816005683	0.583219622505659	0.029729597915776895	-0.13109798045230964	0.5575052427605778	0.02083442444893102	-0.1206549869485059	0.5193470907232624	0.008674413849181994	-0.10085000029586927	0.603447201242139	0.037158853352026955	-0.10680947460142234	0.5877301034363602	0.030064900026656627	-0.10155127502542183	0.5651328087185608	0.022492507712181364	-0.0943262404184052	0.5294704526139475	0.006399032279763128	-0.08413225986251266	0.5996508700229581	0.027623234822525156	-0.0662526746703688	0.5839276667337446	0.02086260332710277	-0.06597928829696034	0.5643111370182268	0.013379174672130123	-0.06602485677441744	0.531374522942153	-0.001310431479974894	-0.0665524696057952	0.462283081001861	-0.023011742144276925	-0.051989820119430985
